<svg width="80" height="12" viewBox="0 0 80 12" fill="none" xmlns="http://www.w3.org/2000/svg">
<g clip-path="url(#clip0_3007_12684)">
<path d="M10.9735 4.58951C10.9421 4.49694 10.8842 4.4156 10.8071 4.35554C10.73 4.29547 10.637 4.25931 10.5395 4.25151L7.68901 4.02501L6.45551 1.29451C6.41623 1.20656 6.35233 1.13187 6.27154 1.07944C6.19074 1.027 6.09649 0.999076 6.00017 0.999024C5.90386 0.998971 5.80958 1.02679 5.72873 1.07914C5.64787 1.13148 5.58389 1.20611 5.54451 1.29401L4.31101 4.02501L1.46051 4.25151C1.36474 4.25909 1.27318 4.29411 1.19679 4.35237C1.1204 4.41063 1.06241 4.48967 1.02976 4.58002C0.99711 4.67038 0.991182 4.76822 1.01269 4.86186C1.03419 4.95549 1.08221 5.04095 1.15101 5.10801L3.25751 7.16151L2.51251 10.3875C2.48989 10.4852 2.49714 10.5874 2.53332 10.6808C2.5695 10.7743 2.63294 10.8548 2.71541 10.9117C2.79788 10.9687 2.89557 10.9996 2.9958 11.0003C3.09604 11.0011 3.19419 10.9717 3.27751 10.916L6.00001 9.10101L8.72251 10.916C8.80768 10.9726 8.90812 11.0017 9.01033 10.9994C9.11253 10.9972 9.2116 10.9637 9.29421 10.9035C9.37682 10.8432 9.439 10.7592 9.4724 10.6625C9.50579 10.5659 9.5088 10.4614 9.48101 10.363L8.56651 7.16301L10.8345 5.12201C10.983 4.98801 11.0375 4.77901 10.9735 4.58951Z" fill="#F3CD03"/>
<path d="M27.974 4.58951C27.9426 4.49694 27.8847 4.4156 27.8076 4.35554C27.7305 4.29547 27.6374 4.25931 27.54 4.25151L24.6895 4.02501L23.456 1.29451C23.4167 1.20656 23.3528 1.13187 23.272 1.07944C23.1912 1.027 23.097 0.999076 23.0007 0.999024C22.9043 0.998971 22.8101 1.02679 22.7292 1.07914C22.6484 1.13148 22.5844 1.20611 22.545 1.29401L21.3115 4.02501L18.461 4.25151C18.3652 4.25909 18.2737 4.29411 18.1973 4.35237C18.1209 4.41063 18.0629 4.48967 18.0302 4.58002C17.9976 4.67038 17.9917 4.76822 18.0132 4.86186C18.0347 4.95549 18.0827 5.04095 18.1515 5.10801L20.258 7.16151L19.513 10.3875C19.4904 10.4852 19.4976 10.5874 19.5338 10.6808C19.57 10.7743 19.6334 10.8548 19.7159 10.9117C19.7984 10.9687 19.8961 10.9996 19.9963 11.0003C20.0965 11.0011 20.1947 10.9717 20.278 10.916L23.0005 9.10101L25.723 10.916C25.8082 10.9726 25.9086 11.0017 26.0108 10.9994C26.113 10.9972 26.2121 10.9637 26.2947 10.9035C26.3773 10.8432 26.4395 10.7592 26.4729 10.6625C26.5063 10.5659 26.5093 10.4614 26.4815 10.363L25.567 7.16301L27.835 5.12201C27.9835 4.98801 28.038 4.77901 27.974 4.58951Z" fill="#F3CD03"/>
<path d="M44.9735 4.58951C44.9421 4.49694 44.8842 4.4156 44.8071 4.35554C44.73 4.29547 44.637 4.25931 44.5395 4.25151L41.689 4.02501L40.4555 1.29451C40.4162 1.20656 40.3523 1.13187 40.2715 1.07944C40.1907 1.027 40.0965 0.999076 40.0002 0.999024C39.9039 0.998971 39.8096 1.02679 39.7287 1.07914C39.6479 1.13148 39.5839 1.20611 39.5445 1.29401L38.311 4.02501L35.4605 4.25151C35.3647 4.25909 35.2732 4.29411 35.1968 4.35237C35.1204 4.41063 35.0624 4.48967 35.0298 4.58002C34.9971 4.67038 34.9912 4.76822 35.0127 4.86186C35.0342 4.95549 35.0822 5.04095 35.151 5.10801L37.2575 7.16151L36.5125 10.3875C36.4899 10.4852 36.4971 10.5874 36.5333 10.6808C36.5695 10.7743 36.6329 10.8548 36.7154 10.9117C36.7979 10.9687 36.8956 10.9996 36.9958 11.0003C37.096 11.0011 37.1942 10.9717 37.2775 10.916L40 9.10101L42.7225 10.916C42.8077 10.9726 42.9081 11.0017 43.0103 10.9994C43.1125 10.9972 43.2116 10.9637 43.2942 10.9035C43.3768 10.8432 43.439 10.7592 43.4724 10.6625C43.5058 10.5659 43.5088 10.4614 43.481 10.363L42.5665 7.16301L44.8345 5.12201C44.983 4.98801 45.0375 4.77901 44.9735 4.58951Z" fill="#F3CD03"/>
<path d="M61.9738 4.58951C61.9423 4.49694 61.8845 4.4156 61.8074 4.35554C61.7302 4.29547 61.6372 4.25931 61.5398 4.25151L58.6893 4.02501L57.4558 1.29451C57.4165 1.20656 57.3526 1.13187 57.2718 1.07944C57.191 1.027 57.0967 0.999076 57.0004 0.999024C56.9041 0.998971 56.8098 1.02679 56.729 1.07914C56.6481 1.13148 56.5841 1.20611 56.5448 1.29401L55.3113 4.02501L52.4608 4.25151C52.365 4.25909 52.2734 4.29411 52.197 4.35237C52.1206 4.41063 52.0627 4.48967 52.03 4.58002C51.9974 4.67038 51.9914 4.76822 52.0129 4.86186C52.0344 4.95549 52.0825 5.04095 52.1513 5.10801L54.2578 7.16151L53.5128 10.3875C53.4901 10.4852 53.4974 10.5874 53.5336 10.6808C53.5697 10.7743 53.6332 10.8548 53.7157 10.9117C53.7981 10.9687 53.8958 10.9996 53.996 11.0003C54.0963 11.0011 54.1944 10.9717 54.2778 10.916L57.0003 9.10101L59.7228 10.916C59.8079 10.9726 59.9084 11.0017 60.0106 10.9994C60.1128 10.9972 60.2118 10.9637 60.2945 10.9035C60.3771 10.8432 60.4392 10.7592 60.4726 10.6625C60.506 10.5659 60.509 10.4614 60.4813 10.363L59.5668 7.16301L61.8348 5.12201C61.9833 4.98801 62.0378 4.77901 61.9738 4.58951Z" fill="#F3CD03"/>
<path d="M71.2585 7.1615L70.5135 10.3875C70.4904 10.4852 70.4974 10.5876 70.5334 10.6812C70.5694 10.7749 70.6328 10.8556 70.7154 10.9127C70.798 10.9697 70.8958 11.0006 70.9962 11.0012C71.0965 11.0018 71.1948 10.9721 71.278 10.916L74.0005 9.101L76.723 10.916C76.8082 10.9725 76.9086 11.0017 77.0108 10.9994C77.113 10.9972 77.2121 10.9637 77.2947 10.9035C77.3773 10.8432 77.4395 10.7592 77.4729 10.6625C77.5063 10.5659 77.5093 10.4614 77.4815 10.363L76.567 7.163L78.835 5.122C78.9076 5.0566 78.9595 4.97133 78.9842 4.87676C79.0089 4.78218 79.0053 4.68244 78.974 4.58987C78.9426 4.4973 78.8847 4.41596 78.8076 4.35591C78.7305 4.29586 78.6374 4.25974 78.54 4.252L75.6895 4.025L74.456 1.2945C74.4167 1.20658 74.3527 1.13192 74.2719 1.07953C74.1911 1.02714 74.0968 0.999268 74.0005 0.999268C73.9042 0.999268 73.8099 1.02714 73.7291 1.07953C73.6483 1.13192 73.5843 1.20658 73.545 1.2945L72.3115 4.025L69.461 4.2515C69.3652 4.25909 69.2737 4.29411 69.1973 4.35237C69.1209 4.41063 69.0629 4.48966 69.0302 4.58002C68.9976 4.67037 68.9917 4.76822 69.0132 4.86185C69.0347 4.95549 69.0827 5.04094 69.1515 5.108L71.2585 7.1615ZM72.685 4.9985C72.7742 4.99147 72.86 4.96056 72.9332 4.90901C73.0063 4.85746 73.0643 4.78716 73.101 4.7055L74.0005 2.715L74.9 4.7055C74.9367 4.78716 74.9947 4.85746 75.0679 4.90901C75.141 4.96056 75.2268 4.99147 75.316 4.9985L77.302 5.156L75.6665 6.628C75.5245 6.756 75.468 6.953 75.52 7.137L76.1465 9.3295L74.2785 8.084C74.1965 8.02897 74.1 7.99958 74.0013 7.99958C73.9025 7.99958 73.806 8.02897 73.724 8.084L71.772 9.3855L72.297 7.1125C72.3163 7.0289 72.3137 6.94176 72.2895 6.85944C72.2653 6.77713 72.2204 6.70242 72.159 6.6425L70.64 5.1615L72.685 4.9985Z" fill="#F3CD03"/>
</g>
<defs>
<clipPath id="clip0_3007_12684">
<rect width="80" height="12" fill="white"/>
</clipPath>
</defs>
</svg>
